<svg width="40" height="36" viewBox="0 0 40 36" fill="none" xmlns="http://www.w3.org/2000/svg">
<circle cx="17.5" cy="14.5" r="12.5" fill="#0082C6"/>
<g filter="url(#filter0_d)">
<path d="M10.2308 14.7693C10.0769 14.6154 10 14.3847 10 14.2308C10 14.077 10.0769 13.8462 10.2308 13.6924L11.3077 12.6154C11.6154 12.3077 12.0769 12.3077 12.3846 12.6154L12.4615 12.6924L16.6923 17.2308C16.8462 17.3847 17.0769 17.3847 17.2308 17.2308L27.5385 6.53851H27.6154C27.9231 6.23082 28.3846 6.23082 28.6923 6.53851L29.7692 7.61543C30.0769 7.92312 30.0769 8.38466 29.7692 8.69235L17.4615 21.4616C17.3077 21.6154 17.1538 21.6924 16.9231 21.6924C16.6923 21.6924 16.5385 21.6154 16.3846 21.4616L10.3846 15L10.2308 14.7693Z" fill="white"/>
</g>
<defs>
<filter id="filter0_d" x="0" y="-2" width="40" height="40" filterUnits="userSpaceOnUse" color-interpolation-filters="sRGB">
<feFlood flood-opacity="0" result="BackgroundImageFix"/>
<feColorMatrix in="SourceAlpha" type="matrix" values="0 0 0 0 0 0 0 0 0 0 0 0 0 0 0 0 0 0 127 0"/>
<feOffset dy="4"/>
<feGaussianBlur stdDeviation="5"/>
<feColorMatrix type="matrix" values="0 0 0 0 0 0 0 0 0 0 0 0 0 0 0 0 0 0 0.25 0"/>
<feBlend mode="normal" in2="BackgroundImageFix" result="effect1_dropShadow"/>
<feBlend mode="normal" in="SourceGraphic" in2="effect1_dropShadow" result="shape"/>
</filter>
</defs>
</svg>
