<svg width="32" height="32" viewBox="0 0 32 32" fill="none" xmlns="http://www.w3.org/2000/svg">
<circle cx="16" cy="16" r="15.75" stroke="#0082C6" stroke-width="0.5"/>
<path d="M19.5 23.5H12.5C11.4391 23.5 10.4217 23.0786 9.67157 22.3284C8.92143 21.5783 8.5 20.5609 8.5 19.5V12.5C8.5 11.4391 8.92143 10.4217 9.67157 9.67157C10.4217 8.92143 11.4391 8.5 12.5 8.5H19.5C20.5609 8.5 21.5783 8.92143 22.3284 9.67157C23.0786 10.4217 23.5 11.4391 23.5 12.5V19.5C23.5 20.5609 23.0786 21.5783 22.3284 22.3284C21.5783 23.0786 20.5609 23.5 19.5 23.5Z" stroke="#0082C6" stroke-miterlimit="10"/>
<path d="M16 19.5C17.933 19.5 19.5 17.933 19.5 16C19.5 14.067 17.933 12.5 16 12.5C14.067 12.5 12.5 14.067 12.5 16C12.5 17.933 14.067 19.5 16 19.5Z" stroke="#0082C6" stroke-miterlimit="10"/>
<path d="M20.5 12C20.7761 12 21 11.7761 21 11.5C21 11.2239 20.7761 11 20.5 11C20.2239 11 20 11.2239 20 11.5C20 11.7761 20.2239 12 20.5 12Z" stroke="#0082C6" stroke-miterlimit="10"/>
</svg>
