<svg width="32" height="32" viewBox="0 0 32 32" fill="none" xmlns="http://www.w3.org/2000/svg">
<circle cx="16" cy="16" r="15.75" stroke="#0082C6" stroke-width="0.5"/>
<path d="M12.8 21.3333H10.1333V13.3333H12.8V21.3333ZM11.4672 12.2667C10.7296 12.2667 10.1333 11.6688 10.1333 10.9328C10.1333 10.1968 10.7306 9.60001 11.4672 9.60001C12.2021 9.60001 12.8 10.1979 12.8 10.9328C12.8 11.6688 12.2021 12.2667 11.4672 12.2667ZM22.4 21.3333H19.8362V17.44C19.8362 16.5115 19.8186 15.3173 18.5034 15.3173C17.1685 15.3173 16.9632 16.3285 16.9632 17.3728V21.3333H14.4V13.3275H16.8608V14.4213H16.8954C17.2378 13.792 18.0746 13.1285 19.3226 13.1285C21.92 13.1285 22.4 14.7867 22.4 16.9424C22.4 16.9424 22.4 21.3333 22.4 21.3333Z" fill="#0082C6"/>
</svg>
