<svg width="32" height="32" viewBox="0 0 32 32" fill="none" xmlns="http://www.w3.org/2000/svg">
<circle cx="16" cy="16" r="15.75" stroke="#0082C6" stroke-width="0.5"/>
<g clip-path="url(#clip0)">
<path d="M11.5443 9.14207C9.35696 9.60874 8 10.8261 8 12.3276C8 13.8198 9.76674 14.6597 10.9671 13.7377C11.3964 13.3903 11.5817 13.0042 11.6456 12.3479C11.6456 11.7392 11.4228 11.2116 11.0582 10.9276C10.9384 10.8191 10.8514 10.7006 10.8557 10.674C10.8759 10.6435 11.2101 10.5421 11.5949 10.4508C13.7823 9.91309 15.9089 11.4653 16.5468 14.0827C17.1569 16.5885 16.5459 19.9056 14.0152 21.0928C12.7797 21.6711 10.8456 21.5798 9.33671 20.8696C8.97215 20.6971 8.66835 20.5754 8.6481 20.5855C8.43083 21.0209 8.29371 21.5099 8.12152 21.9653L8.63797 22.1783C10.6633 22.9899 13.4177 23.0812 15.4329 22.4218C21.4013 20.4437 21.3164 11.4006 15.4329 9.38555C14.2448 8.97225 12.7799 8.87681 11.5443 9.14207Z" fill="#0082C6"/>
<ellipse cx="22.2785" cy="21.174" rx="1.72152" ry="1.72464" fill="#0082C6"/>
</g>
<defs>
<clipPath id="clip0">
<rect width="16" height="14" fill="white" transform="translate(8 9)"/>
</clipPath>
</defs>
</svg>
