<svg width="32" height="32" viewBox="0 0 32 32" fill="none" xmlns="http://www.w3.org/2000/svg">
<circle cx="16" cy="16" r="15.75" stroke="#0082C6" stroke-width="0.5"/>
<path d="M22.6666 11.8667C22.1655 12.0841 21.6355 12.2278 21.0933 12.2934C21.6654 11.9516 22.0941 11.4139 22.2999 10.78C21.7623 11.1001 21.1738 11.3255 20.5599 11.4467C20.1496 11.0017 19.6032 10.7055 19.0065 10.6046C18.4097 10.5036 17.7963 10.6036 17.2624 10.8888C16.7286 11.174 16.3045 11.6284 16.0567 12.1806C15.809 12.7328 15.7514 13.3516 15.8933 13.94C14.8062 13.885 13.7429 13.602 12.7724 13.1093C11.8018 12.6165 10.9458 11.9251 10.2599 11.08C10.0193 11.5001 9.89293 11.9759 9.89325 12.46C9.8924 12.9096 10.0027 13.3524 10.2144 13.7491C10.4261 14.1457 10.7326 14.4838 11.1066 14.7334C10.6719 14.7215 10.2465 14.6049 9.86659 14.3934V14.4267C9.86984 15.0566 10.0906 15.6661 10.4915 16.152C10.8923 16.6379 11.4488 16.9704 12.0666 17.0934C11.8288 17.1657 11.5818 17.2039 11.3333 17.2067C11.1612 17.2047 10.9895 17.1891 10.8199 17.16C10.9959 17.7019 11.3363 18.1754 11.794 18.5148C12.2516 18.8541 12.8036 19.0424 13.3733 19.0534C12.4114 19.8102 11.2238 20.2233 9.99992 20.2267C9.77708 20.2274 9.55441 20.2141 9.33325 20.1867C10.5829 20.9935 12.0391 21.4218 13.5266 21.42C14.553 21.4307 15.5713 21.2367 16.522 20.8494C17.4726 20.4621 18.3366 19.8893 19.0634 19.1643C19.7902 18.4394 20.3652 17.5769 20.755 16.6273C21.1447 15.6776 21.3413 14.6598 21.3333 13.6334C21.3333 13.52 21.3333 13.4 21.3333 13.28C21.8564 12.8899 22.3076 12.4116 22.6666 11.8667Z" fill="#0082C6"/>
</svg>
